:SAMPLES-PER-SECOND 30
:FULLY-SPECIFIED
:DEGREES
191
root  -3.85182 38.0848 10.5402 179.235 26.5374 178.077
RightUpLeg  -16.9135 -2.13817 -7.98289
RightLeg  31.738 -7.34357 -5.11308
RightFoot  -10.8366 -0.133461 13.4323
RightToes  -1.74624e-010 0 -3.6325e-017
Spine  11.2386 -0.131581 -7.73415
Spine1  24.4121 -2.41958 3.32482
HEad  -16.661 28.2439 -12.6362
LeftShoulder1  1.47446 -3.26742 -14.9264
LeftArm  13.3467 1.27089 -58.4648
LeftForeArm  71.4237 -79.3753 -78.1562
LeftHand  -2.32593 -3.63359 29.5943
RightShoulder  0.756303 0.54266 11.6171
RightArm  5.00141 -8.42735 60.1445
RightForeArm  155.456 65.824 156.555
RightHand  -1.20847 5.33769 -13.3215
LeftUpLeg  -15.2399 -1.92464 5.63924
LeftLeg  32.1567 4.5825 3.45731
LeftFoot  -13.4892 -0.109214 -10.1293
LeftToes  3.7286e-011 -1.5702e-010 -9.70233e-012
192
root  -3.99136 38.2436 10.4648 179.219 26.7426 177.863
RightUpLeg  -16.4842 -1.10976 -8.35608
RightLeg  30.5969 -8.33645 -5.52667
RightFoot  -9.78512 -0.255913 13.8175
RightToes  -1.74624e-010 0 -3.6325e-017
Spine  10.8009 0.0546532 -7.89759
Spine1  24.8387 -2.17786 3.26686
HEad  -15.6858 27.9853 -11.9176
LeftShoulder1  1.41972 -3.14224 -14.4701
LeftArm  12.7367 0.324224 -57.1993
LeftForeArm  70.7756 -79.3447 -77.8457
LeftHand  -2.37202 -3.5331 30.4726
RightShoulder  0.78118 0.610117 11.9505
RightArm  5.19149 -9.61209 60.6023
RightForeArm  156.193 65.7353 156.727
RightHand  -1.13346 5.31534 -12.5435
LeftUpLeg  -14.9729 -1.36373 5.17899
LeftLeg  31.3594 4.07914 3.03157
LeftFoot  -12.2995 -0.012463 -10.1765
LeftToes  3.7286e-011 -1.5702e-010 -9.70233e-012
193
root  -4.1702 38.5346 10.3797 179.871 27.1631 177.867
RightUpLeg  -16.118 -0.747285 -8.59929
RightLeg  28.0341 -8.78353 -5.27194
RightFoot  -7.64921 -0.507775 14.0863
RightToes  -1.74624e-010 0 -3.6325e-017
Spine  10.1835 0.063132 -7.30665
Spine1  24.5868 -1.76299 2.58631
HEad  -14.7314 27.8365 -11.5929
LeftShoulder1  1.28406 -2.61556 -14.0542
LeftArm  12.1933 0.638041 -56.2837
LeftForeArm  75.2431 -79.4674 -83.1121
LeftHand  -2.40051 -3.49339 30.9492
RightShoulder  0.771297 0.519499 12.154
RightArm  5.98179 -11.346 60.9237
RightForeArm  156.795 65.128 157.398
RightHand  -1.01179 5.16053 -11.3943
LeftUpLeg  -14.7592 -0.591622 4.8178
LeftLeg  29.4648 4.53727 3.11398
LeftFoot  -10.5256 0.131527 -9.69535
LeftToes  3.7286e-011 -1.5702e-010 -9.70233e-012
194
root  -4.36906 38.8401 10.324 -179.088 27.7299 178.066
RightUpLeg  -16.1419 -0.719185 -8.66961
RightLeg  25.2553 -8.7049 -4.67452
RightFoot  -5.09774 -0.799909 13.9679
RightToes  -1.74624e-010 0 -3.6325e-017
Spine  9.7492 0.083833 -6.67855
Spine1  23.6893 -1.43072 2.12254
HEad  -14.3586 27.8778 -11.7527
LeftShoulder1  1.14931 -2.03575 -13.7934
LeftArm  11.7127 2.01363 -55.5495
LeftForeArm  82.1337 -79.4994 -90.9815
LeftHand  -2.42114 -3.57901 30.9194
RightShoulder  0.754465 0.431743 12.1554
RightArm  6.85208 -12.8947 60.8106
RightForeArm  157.148 64.3215 158.199
RightHand  -0.865657 4.95749 -9.98046
LeftUpLeg  -14.7444 -0.281313 4.66644
LeftLeg  27.2649 5.30457 3.30597
LeftFoot  -8.6638 0.273074 -9.41205
LeftToes  3.7286e-011 -1.5702e-010 -9.70233e-012
195
root  -4.55894 39.0624 10.3104 -178.124 28.2662 178.233
RightUpLeg  -16.5083 -0.89618 -8.69545
RightLeg  23.3872 -8.64212 -4.29013
RightFoot  -3.2557 -1.0114 13.9242
RightToes  -1.74624e-010 0 -3.6325e-017
Spine  9.63239 0.166632 -6.51617
Spine1  22.5877 -1.29763 2.1341
HEad  -14.4984 27.9839 -12.1043
LeftShoulder1  1.09298 -1.79797 -13.6462
LeftArm  11.5439 3.88243 -54.6104
LeftForeArm  88.58 -79.353 -98.3485
LeftHand  -2.44089 -3.67645 30.8415
RightShoulder  0.754072 0.470754 11.9355
RightArm  7.25034 -13.8008 60.4551
RightForeArm  156.815 63.5729 158.834
RightHand  -0.729167 4.67927 -8.6801
LeftUpLeg  -14.9311 -0.570674 4.56352
LeftLeg  25.5486 5.77949 3.34377
LeftFoot  -7.32164 0.387372 -9.77125
LeftToes  3.7286e-011 -1.5702e-010 -9.70233e-012
196
root  -4.73906 39.1303 10.3451 -177.54 28.4326 178.246
RightUpLeg  -17.0245 -1.86674 -8.78763
RightLeg  22.9392 -8.58512 -4.18159
RightFoot  -2.76375 -1.09695 14.3084
RightToes  -1.74624e-010 0 -3.6325e-017
Spine  9.95788 0.154246 -6.58124
Spine1  21.5232 -1.3836 2.29757
HEad  -14.7371 28.0042 -12.4194
LeftShoulder1  1.09356 -1.81691 -13.5769
LeftArm  12.1089 5.41238 -53.4172
LeftForeArm  92.4384 -79.1857 -102.681
LeftHand  -2.42827 -3.65661 30.7544
RightShoulder  0.748236 0.530665 11.4554
RightArm  7.02928 -14.0904 60.3349
RightForeArm  155.763 63.0081 159.211
RightHand  -0.657483 4.34326 -8.11153
LeftUpLeg  -15.5358 -0.863609 4.34729
LeftLeg  25.1282 5.95136 3.38043
LeftFoot  -6.82396 0.434582 -9.97212
LeftToes  3.7286e-011 -1.5702e-010 -9.70233e-012
197
root  -4.92427 38.9846 10.4466 -177.397 27.8634 178.157
RightUpLeg  -17.7172 -3.71541 -8.97632
RightLeg  24.0594 -8.17992 -4.1922
RightFoot  -3.59725 -1.04027 14.9326
RightToes  -1.74624e-010 0 -3.6325e-017
Spine  10.9366 -0.0700249 -6.41969
Spine1  20.3625 -1.71097 2.45408
HEad  -14.9073 27.8918 -12.6671
LeftShoulder1  1.09422 -1.82416 -13.5599
LeftArm  13.3865 6.07335 -52.3973
LeftForeArm  92.6175 -79.1796 -102.829
LeftHand  -2.3396 -3.53493 30.0671
RightShoulder  0.705682 0.399783 10.9332
RightArm  6.31862 -13.9481 60.5239
RightForeArm  154.705 62.7182 159.348
RightHand  -0.670538 4.1182 -8.44481
LeftUpLeg  -17.0475 -0.279335 4.08605
LeftLeg  26.8797 5.26509 3.23743
LeftFoot  -7.08088 0.388984 -9.26198
LeftToes  3.7286e-011 -1.5702e-010 -9.70233e-012
198
root  -5.12989 38.5976 10.6019 -177.66 26.5213 178.081
RightUpLeg  -18.7624 -5.56969 -9.29696
RightLeg  26.8777 -7.6862 -4.44418
RightFoot  -5.52309 -0.832065 15.5493
RightToes  -1.74624e-010 0 -3.6325e-017
Spine  12.3489 -0.495414 -5.76546
Spine1  19.3583 -2.21934 2.61133
HEad  -15.2167 27.5741 -12.912
LeftShoulder1  1.11578 -1.93251 -13.548
LeftArm  14.723 5.94023 -52.1125
LeftForeArm  88.8358 -79.3045 -99.153
LeftHand  -2.19759 -3.38224 28.8006
RightShoulder  0.647031 0.100522 10.8042
RightArm  5.13471 -13.2847 60.5253
RightForeArm  153.822 62.8431 159.156
RightHand  -0.744538 4.11437 -9.3452
LeftUpLeg  -19.5549 0.913247 4.05524
LeftLeg  31.0392 2.47626 1.92726
LeftFoot  -8.28977 0.291529 -9.11217
LeftToes  3.7286e-011 -1.5702e-010 -9.70233e-012
199
root  -5.3864 38.0137 10.7349 -178.345 25.0516 178.047
RightUpLeg  -20.1314 -6.95867 -9.84127
RightLeg  31.1826 -7.23424 -4.94553
RightFoot  -8.12159 -0.51137 16.1237
RightToes  -1.74624e-010 0 -3.6325e-017
Spine  13.3656 -1.02717 -4.52253
Spine1  19.46 -2.61538 2.4108
HEad  -15.8391 26.986 -13.3223
LeftShoulder1  1.21965 -2.40041 -13.6927
LeftArm  15.4338 5.28932 -52.9064
LeftForeArm  80.9961 -79.4017 -91.9071
LeftHand  -2.10328 -3.21517 28.1362
RightShoulder  0.623607 -0.0888586 11.1504
RightArm  3.48368 -11.7485 59.9044
RightForeArm  152.205 63.6428 158.296
RightHand  -0.870219 4.28303 -10.6867
LeftUpLeg  -22.2145 1.46138 4.45177
LeftLeg  36.7003 -2.51122 -1.68456
LeftFoot  -10.8789 0.10262 -11.4772
LeftToes  3.7286e-011 -1.5702e-010 -9.70233e-012
200
root  -5.73711 37.3658 10.7746 -179.462 24.5371 177.928
RightUpLeg  -21.5482 -8.13676 -10.7482
RightLeg  35.939 -6.09692 -4.97867
RightFoot  -10.5279 -0.190584 16.5155
RightToes  -1.74624e-010 0 -3.6325e-017
Spine  13.4244 -1.46695 -2.93347
Spine1  21.1416 -2.52074 1.41738
HEad  -16.5387 26.4059 -14.0823
LeftShoulder1  1.39837 -3.05444 -14.4228
LeftArm  15.3028 4.39205 -54.8013
LeftForeArm  69.8437 -79.2624 -80.8886
LeftHand  -2.13594 -3.12045 28.8457
RightShoulder  0.650754 -0.0100576 11.5574
RightArm  1.82061 -9.23739 58.7529
RightForeArm  149.509 65.3595 156.357
RightHand  -1.03681 4.54366 -12.3529
LeftUpLeg  -23.7999 1.13518 5.17077
LeftLeg  42.321 -7.1621 -6.53088
LeftFoot  -14.3031 -0.302923 -14.991
LeftToes  3.7286e-011 -1.5702e-010 -9.70233e-012
